<?xml version="1.0" standalone="no"?>
<!DOCTYPE svg PUBLIC "-//W3C//DTD SVG 20010904//EN"
 "http://www.w3.org/TR/2001/REC-SVG-20010904/DTD/svg10.dtd">
<svg version="1.0" xmlns="http://www.w3.org/2000/svg"
 width="5000.000000pt" height="5000.000000pt" viewBox="0 0 5000.000000 5000.000000"
 preserveAspectRatio="xMidYMid meet">

<g transform="translate(0.000000,5000.000000) scale(0.100000,-0.100000)"
fill="#000000" stroke="none">
<path d="M17000 44073 c-479 -36 -966 -233 -1356 -547 -110 -88 -268 -248
-363 -366 -323 -402 -512 -882 -551 -1400 -6 -86 -10 -1216 -10 -3142 l0
-3008 -67 0 c-38 0 -1449 12 -3138 26 -3390 28 -3646 28 -3830 -4 -250 -44
-446 -107 -670 -216 -249 -122 -469 -279 -665 -476 -394 -393 -641 -898 -716
-1460 -34 -260 -18 -596 42 -870 112 -511 420 -1021 818 -1357 381 -320 840
-519 1321 -573 59 -6 3983 -10 11533 -10 l11442 0 0 -95 0 -95 51 0 51 0 -6
-567 c-4 -313 -22 -2573 -41 -5023 -19 -2450 -37 -4697 -40 -4992 l-7 -538
2466 0 c1356 0 2466 1 2466 3 0 1 25 3081 55 6843 38 4761 51 6876 45 6955
-22 256 -75 486 -166 717 -286 733 -920 1302 -1668 1497 -185 48 -286 64 -486
75 -96 6 -3032 33 -6525 60 -3492 27 -6572 52 -6842 56 l-493 7 0 3086 c0
2648 -2 3104 -15 3211 -36 307 -114 567 -254 845 -130 256 -264 440 -475 650
-411 408 -937 655 -1503 704 -113 10 -298 12 -403 4z"/>
<path d="M14727 29873 c-12 -11 -8 -13961 3 -14113 26 -343 103 -626 255 -936
222 -449 563 -814 998 -1064 254 -145 540 -245 858 -297 98 -16 520 -18 7007
-20 l6902 -3 0 -343 c0 -188 -9 -1408 -20 -2712 -23 -2730 -24 -3209 -9 -3343
42 -390 183 -781 400 -1105 118 -178 193 -269 345 -418 324 -315 688 -519
1123 -629 326 -81 695 -92 1031 -29 830 156 1527 739 1844 1543 106 267 152
502 167 841 5 127 18 1540 30 3140 11 1601 21 2942 22 2980 l2 70 3525 5
c3953 6 3565 -2 3885 80 418 106 802 327 1115 640 921 921 988 2387 155 3390
-92 110 -296 304 -407 388 -334 251 -693 403 -1115 474 l-128 22 -11532 3
-11533 3 0 5720 0 5720 -2458 0 c-1352 0 -2462 -3 -2465 -7z"/>
</g>
</svg>
